<svg xmlns="http://www.w3.org/2000/svg" xmlns:xlink="http://www.w3.org/1999/xlink" viewBox="0 0 312.94 46.06"><defs><style>.cls-1{fill:url(#radial-gradient);}.cls-2{fill:url(#radial-gradient-2);}.cls-3{fill:url(#radial-gradient-3);}.cls-4{fill:url(#radial-gradient-4);}.cls-5{fill:url(#radial-gradient-5);}.cls-6{fill:url(#radial-gradient-6);}.cls-7{fill:url(#radial-gradient-7);}.cls-8{fill:url(#radial-gradient-8);}.cls-9{fill:#595857;}.cls-10{fill:#595757;}</style><radialGradient id="radial-gradient" cx="44.83" cy="0.1" r="64.54" gradientUnits="userSpaceOnUse"><stop offset="0" stop-color="#e6d087"/><stop offset="1" stop-color="#896c2b"/></radialGradient><radialGradient id="radial-gradient-2" cx="44.83" cy="0.1" r="64.54" xlink:href="#radial-gradient"/><radialGradient id="radial-gradient-3" cx="44.83" cy="0.1" r="64.54" xlink:href="#radial-gradient"/><radialGradient id="radial-gradient-4" cx="44.83" cy="0.1" r="64.54" xlink:href="#radial-gradient"/><radialGradient id="radial-gradient-5" cx="44.83" cy="0.1" r="64.54" xlink:href="#radial-gradient"/><radialGradient id="radial-gradient-6" cx="44.83" cy="0.1" r="64.54" xlink:href="#radial-gradient"/><radialGradient id="radial-gradient-7" cx="44.83" cy="0.1" r="64.54" xlink:href="#radial-gradient"/><radialGradient id="radial-gradient-8" cx="44.83" cy="0.1" r="64.54" xlink:href="#radial-gradient"/></defs><g id="Layer_2" data-name="Layer 2"><g id="图层_1" data-name="图层 1"><polygon class="cls-1" points="10.38 29.26 16.74 29.26 16.74 35.57 21.84 35.57 21.84 24.16 10.38 24.16 10.38 29.26"/><path class="cls-2" d="M16.74,38.33a2.46,2.46,0,0,1-2.45,2.39H5.35V31.65a2.32,2.32,0,0,1,2.31-2.39H8.83v-5.1H7.24C2.91,24.16,0,27.1,0,31.49V46.06H14.5a7.4,7.4,0,0,0,5.43-2,7.14,7.14,0,0,0,1.91-5.17V37.17h-5.1Z"/><path class="cls-3" d="M14.57,0H0V14.5A7.5,7.5,0,0,0,2,20,7.12,7.12,0,0,0,7.18,21.9H8.83V16.8H7.73a2.51,2.51,0,0,1-2.38-2.5v-9h9.06a2.29,2.29,0,0,1,2.33,2.31V8.9h5.1V7.24A6.87,6.87,0,0,0,14.57,0Z"/><polygon class="cls-4" points="16.74 16.8 10.38 16.8 10.38 21.91 21.84 21.91 21.84 10.49 16.74 10.49 16.74 16.8"/><polygon class="cls-5" points="35.46 16.8 29.13 16.8 29.13 10.49 24.02 10.49 24.02 21.91 35.46 21.91 35.46 16.8"/><path class="cls-6" d="M31.4,0A7.44,7.44,0,0,0,26,2,7.15,7.15,0,0,0,24,7.18V8.9h5.11V7.73A2.46,2.46,0,0,1,31.6,5.35h8.95v9.06a2.33,2.33,0,0,1-2.32,2.39H37.07v5.1h1.59c4.33,0,7.23-2.94,7.23-7.33V0Z"/><polygon class="cls-7" points="29.13 29.26 35.46 29.26 35.46 24.16 24.02 24.16 24.02 35.57 29.13 35.57 29.13 29.26"/><path class="cls-8" d="M38.71,24.16H37.07v5.1h1.1a2.51,2.51,0,0,1,2.38,2.5v9H31.49a2.31,2.31,0,0,1-2.36-2.32V37.16H24v1.67a6.89,6.89,0,0,0,7.31,7.23H45.89V31.56a7.5,7.5,0,0,0-2-5.45A7.09,7.09,0,0,0,38.71,24.16Z"/><path class="cls-9" d="M68.81,22.12V3.9q-.09-.36-.18-.81c-.12-.37-.12-.61,0-.73s.84,0,2,.27c1,.19,1.48.37,1.54.55s-.12.33-.36.45-.27.21-.27.27v7.25h4.35A9.08,9.08,0,0,1,77.51,9h.36c1.09.78,2,1.48,2.72,2.08.12.31.06.49-.18.55H71.53V22.12h6a8,8,0,0,1,1.72-2h.27A12.23,12.23,0,0,1,82.22,22q.18.36-.09.54H62.19l-1.54.09L60.2,22a3.1,3.1,0,0,1,.73.09Z"/><path class="cls-9" d="M89.63,5.81q-2.17,8.52-2.54,11.32a5,5,0,0,0,.54,2.81,4,4,0,0,1,.46,1.45,1.6,1.6,0,0,1-1.81,1.54c-1.15-.18-1.64-.75-1.45-1.72a14.27,14.27,0,0,0,0-2.08C84.58,17.8,84,17.07,83.19,17a.52.52,0,0,1-.18-.36q0-.09.27-.09,2.28,1.08,6-10.79s.06-.09.18-.09Zm-5.08,5.07a2.11,2.11,0,0,1-.27-.82A3.28,3.28,0,0,0,83.47,8c-.13,0-.15-.06-.09-.18a.37.37,0,0,1,.27-.09c1.63.42,2.59,1.06,2.9,1.9A1.52,1.52,0,0,1,86,11.33,1,1,0,0,1,84.55,10.88Zm2-5.44a.88.88,0,0,1-.18-.63A3,3,0,0,0,85.1,2.63q-.18,0-.09-.09a1,1,0,0,1,.27-.18c1.93.18,3.11.79,3.53,1.81a1.48,1.48,0,0,1-.72,1.64C87.36,6.17,86.85,6.05,86.55,5.44Zm5.62,14.41-.82.64q-.09.18-.36.09a11.38,11.38,0,0,1-1.63-1.72q-.09,0-.09-.18a.28.28,0,0,0,.09-.19,13.18,13.18,0,0,0,1.36-4.26h-.37a6.14,6.14,0,0,1-1.54.1l-.45-.64a3,3,0,0,0,.73.09h1.72a48.55,48.55,0,0,0,.81-5.71c-.06-.18.06-.24.37-.18.9.42,1.54.7,1.9.82h4.89a6.74,6.74,0,0,1,1.09-.91h.36a17.09,17.09,0,0,1,2.18,1.36.38.38,0,0,1,0,.36,4.13,4.13,0,0,1-.73.36q-.09,1.9-.18,3.9h.36l.09-.18a8.82,8.82,0,0,1,1.27-1.45h.27a11.38,11.38,0,0,1,2.09,1.72q.09.36-.09.36h-4a33.63,33.63,0,0,1-.45,5.08h.09a14.92,14.92,0,0,1,1.36-1.63h.27a12.44,12.44,0,0,1,2.08,1.81q.09.36-.09.36H101q-1,3.72-4.17,3.63-.36,0-.27-.09a2.72,2.72,0,0,0-2.09-2.27q-.18-.09-.09-.18h.18c1.82.54,3.08.18,3.81-1.09Zm.36-18.21a4.82,4.82,0,0,0,1,.45c.9.3,1.57.54,2,.73a.58.58,0,0,1,0,.45l-.73.36c-.48.67-1,1.3-1.45,1.9h7.16a3.54,3.54,0,0,0,.37-.54,8.3,8.3,0,0,1,1.18-1.27q0-.09.27,0A11.31,11.31,0,0,1,105,5.62c0,.31,0,.46-.19.46H93a40.64,40.64,0,0,1-3.8,4c-.19.13-.25.07-.19-.18a39.24,39.24,0,0,0,3.18-8.06Q92.17,1.73,92.53,1.64Zm.36,12.59L92,19.31h6.52a24.45,24.45,0,0,0,.82-5.08Zm.91-5.07L93,13.78h6.35q.09-1.63.18-4.62Zm.54,6q-.09-.18.18-.18A2.88,2.88,0,0,1,97,17.41a1.24,1.24,0,0,1-1.18,1.17c-.78.06-1.18-.24-1.18-.9a3,3,0,0,1,.09-.46C95,16.68,94.89,16,94.34,15.14ZM95,9.61c1.45.37,2.26,1.09,2.44,2.18a1.51,1.51,0,0,1-1.08,1.54,1,1,0,0,1-1.27-1,1.7,1.7,0,0,1,.09-.54c.18-.37.06-1-.37-1.91a.26.26,0,0,1-.09-.18A.38.38,0,0,1,95,9.61Z"/><path class="cls-9" d="M118.6,22.66c-.06.3-.57.58-1.54.82s-1.54,0-1.54-.27q.09-8.52.18-11.88v-.72h-4.07v1.45c0,2.48.09,5.16.27,8.06-.06.43-.55.7-1.45.82s-1.45,0-1.45-.27q.09-5.72.18-8.61V9.16a19.2,19.2,0,0,1,2.54,1h4V6.53h-7.16a11.6,11.6,0,0,1-1.44.09L106.55,6a3.37,3.37,0,0,0,.82.09H124V6a12.94,12.94,0,0,1,1.54-1.82q.09-.09.27,0a8.85,8.85,0,0,1,2.63,2q.09.36-.18.36H119c0,.24-.18.49-.55.73v2.9h3.81l.18-.18.91-.91a.38.38,0,0,1,.36,0L126,10.34a.38.38,0,0,1,0,.36,1.13,1.13,0,0,1-.64.63l.27,8.25c-.24.73-1.24,1.15-3,1.27a.24.24,0,0,1-.27-.27,3.94,3.94,0,0,0-2.54-2q-.27-.09,0-.36c1.63.42,2.6.4,2.9-.09V10.61h-4.35v.72Q118.42,15.41,118.6,22.66Zm-3.71-21q3.61.18,4.08,2.26a1.72,1.72,0,0,1-1,1.81,1.42,1.42,0,0,1-1.9-.54A1.63,1.63,0,0,1,115.89,4a2,2,0,0,0-1-2.08Q114.62,1.82,114.89,1.64Z"/><path class="cls-9" d="M135.53,3.9c1,.49,2.08.94,3.17,1.36v.45a4,4,0,0,1-.64.28.81.81,0,0,0-.54.54,21.14,21.14,0,0,1-7.79,7.7q-.37.09-.09-.18a25.86,25.86,0,0,0,5.52-10A.26.26,0,0,1,135.53,3.9Zm6.79,12.42c2.9.85,4.84,2.14,5.8,3.9a2.39,2.39,0,0,1-.54,2.53,1.43,1.43,0,0,1-2.18,0,3.1,3.1,0,0,1-.54-1.63,2.21,2.21,0,0,1-.18-.81,82,82,0,0,0-11.51,2.35H133q-.27.18-.27-.09a11.56,11.56,0,0,1-.82-2.17c-.12-.18-.06-.31.18-.37q3.27-.81,6-8.7c0-.18.12-.24.37-.18s1.14.64,2.53,1.36a2.28,2.28,0,0,0,.73.27c.06.07,0,.19-.09.37a4.13,4.13,0,0,1-.73.36.64.64,0,0,0-.54.54c-.12.18-.27.4-.45.64q-3.09,4-4.17,5.16l8.79-.27a7.65,7.65,0,0,0-2.27-3.08Q142,16.23,142.32,16.32ZM141,1.73l2.54.45q.18.09,0,.36a1.9,1.9,0,0,1-.54.64c1.09,4.41,3.92,7,8.52,7.88q.09.09,0,.27a5.18,5.18,0,0,0-2.63,2.45.29.29,0,0,1-.27.18q-5.45-2.45-7.16-10.33c-.12-.3-.31-.84-.55-1.63A.18.18,0,0,1,141,1.73Z"/><path class="cls-9" d="M165.32,7.71V3.18a4.24,4.24,0,0,0-.18-.82q-.19-.54-.09-.72a6.63,6.63,0,0,1,3.44.9c0,.13-.12.28-.36.46l-.18.18V7.71h1.54a3.83,3.83,0,0,0,.36-.54A7.82,7.82,0,0,1,171,5.9q.09-.09.27,0a11,11,0,0,1,2.63,1.9q.09.36-.18.45H168v7h2.17a21,21,0,0,1,1.63-2.08.38.38,0,0,1,.36,0c1.09.78,2,1.48,2.72,2.08q.18.36-.09.45H154.26a14.06,14.06,0,0,1-1.54.09l-.45-.63a3.35,3.35,0,0,0,.81.09h5.71v-7h-5.35L153,7.62a3.37,3.37,0,0,0,.82.09h5V3.18a4.24,4.24,0,0,0-.18-.82,1.13,1.13,0,0,1-.09-.72,6.6,6.6,0,0,1,3.44.9c0,.13-.12.28-.36.46l-.18.18V7.71Zm-5.26,8.79c.18.12.6.36,1.27.72a7.86,7.86,0,0,0,1.72.82v.36a2.82,2.82,0,0,1-.91.37.42.42,0,0,0-.45.27,21.86,21.86,0,0,1-8.88,4.17q-.18-.09-.09-.09a19.41,19.41,0,0,0,7-6.53Q159.79,16.41,160.06,16.5Zm5.26-1.27v-7h-3.9v7ZM165.14,17c3.44.43,5.92,1.48,7.43,3.18a1.92,1.92,0,0,1,.27,2.17c-.54.85-1.15,1.09-1.81.73a10.2,10.2,0,0,1-1.54-1.91,11.68,11.68,0,0,0-4.44-4Q164.68,17,165.14,17Z"/><path class="cls-9" d="M193.3,18.49c-.13.49-.67.76-1.64.82-.72,0-1.08-.27-1.08-.82V12.06h-9v7.43c-.07.48-.52.82-1.36,1s-1.24-.06-1.18-.55l.09-7.43V11.15a1.56,1.56,0,0,1-1.82.73,1.25,1.25,0,0,1-.81-1.54,1.81,1.81,0,0,1,.09-.55c.48-.9.21-1.69-.82-2.35-.18-.12-.15-.27.1-.46a2.89,2.89,0,0,0,1.9.46q.9.09,5.35-4.35.27-.09.36.36Q180,7.44,179.43,9a2,2,0,0,0-.18.9,4,4,0,0,1,.09.64v.09c1,.42,1.81.76,2.35,1h8.43a2.88,2.88,0,0,1,.73-.91h.36a9.93,9.93,0,0,1,2.45,1.18.38.38,0,0,1,0,.36l-.64.54Zm-5.62-4L187,15q.27,8.34-10.78,8.88-.27-.09-.09-.45c3.32-.67,5.52-1.63,6.61-2.9s1.75-3.54,1.82-6.8q0-.09.36-.18c.66.12,1.54.33,2.63.63C187.59,14.39,187.62,14.51,187.68,14.51ZM176.89,1.64c1.93.06,3.08.63,3.45,1.72C180.28,5,179.49,5.5,178,4.9a1,1,0,0,1-.36-.73V3.81a2,2,0,0,0-.82-1.9Q176.62,1.73,176.89,1.64Zm19.85,7.43a.83.83,0,0,1,0,.54,2.21,2.21,0,0,0-1.9,1.81c-.13.19-.25.25-.37.19-2.66-.85-4.29-2.81-4.89-5.9q-1.72,5.18-7.89,5.62-.27-.18,0-.45c2.84-.66,4.72-2.78,5.62-6.34h-.81a27.94,27.94,0,0,1-4.35,3.89q-.27-.09-.18-.27a16.89,16.89,0,0,0,3.44-6.61c0-.06.12-.12.36-.19l1.91.64a11.33,11.33,0,0,0,1.08.36v.36c-.72.19-1.11.37-1.17.55a7,7,0,0,0-.73.81h5.89a10.8,10.8,0,0,1,.73-1.17h.45a23.85,23.85,0,0,1,2.63,1.9.33.33,0,0,1-.27.45c-1.21-.24-2.6.31-4.17,1.63-.24.06-.34,0-.27-.27a11.46,11.46,0,0,1,.9-2.08h-3.26a7,7,0,0,1,.91.45v.27a1.36,1.36,0,0,1-.28.18h-.18Q191.85,8.89,196.74,9.07Zm-9.88,10c3.57.18,6.13.93,7.7,2.26a1.64,1.64,0,0,1,0,2.27,1.32,1.32,0,0,1-2,0,3,3,0,0,1-.36-.45,4.62,4.62,0,0,0-.36-.46c-.61-1.21-2.3-2.26-5.08-3.17Q186.41,19.22,186.86,19Z"/><path class="cls-9" d="M198.71,17.13q1.17,1.73,3.44-4.8c.61-1.51,1.39-3.44,2.36-5.8q.18-.27.18,0A69,69,0,0,0,202.24,18a6.21,6.21,0,0,0,.27,2.08c.12.61.21,1.06.28,1.36A1.55,1.55,0,0,1,201.43,23a1.34,1.34,0,0,1-1.54-1.36v-.55q.54-2.89-1.27-3.71A.19.19,0,0,1,198.71,17.13Zm0-8.79c1.87.06,3,.61,3.26,1.64a1.69,1.69,0,0,1-.63,1.72c-.67.36-1.15.27-1.45-.28a2.11,2.11,0,0,1-.28-.9,2.35,2.35,0,0,0-1-2A.26.26,0,0,1,198.71,8.34Zm1.9-5.8c2,0,3.29.58,3.72,1.73A1.46,1.46,0,0,1,203.6,6a1.08,1.08,0,0,1-1.54-.46,1.55,1.55,0,0,1-.27-.81,2.12,2.12,0,0,0-1.18-2C200.43,2.67,200.43,2.6,200.61,2.54Zm13.23,1.54a17.67,17.67,0,0,0,1.72.55q.18.09,0,.27-.81.36-.81.54L212.94,8H216q.09,0,.45-.45a3.11,3.11,0,0,1,.54-.46.47.47,0,0,1,.37,0,12.25,12.25,0,0,1,1.54.91,3.49,3.49,0,0,0,.45.18.38.38,0,0,1,0,.36c0,.13-.09.25-.27.37l-.18.09.09,5.16c-.06.31-.49.55-1.27.73s-1.18-.06-1.18-.36v-.46h-1.09a.59.59,0,0,1-.36.28.53.53,0,0,0-.27.45v6.34a9.7,9.7,0,0,1,.09,1c-.3.66-1.15,1.05-2.54,1.18-.18-.06-.27-.13-.27-.18a2.78,2.78,0,0,0-2-2q-.19-.18,0-.18a4.26,4.26,0,0,0,2.53,0V14.05h-1.45c-.06.36-.42.64-1.08.82-.91.06-1.39-.06-1.45-.36V13.6c0-.6,0-1.33.09-2.18V7.07A15.5,15.5,0,0,1,211.4,8h.54c.06-.42.18-1.06.36-1.9s.24-1.51.36-2H208a1.36,1.36,0,0,0-.27.19.26.26,0,0,1-.18.09V15.23a10,10,0,0,1-4.26,7.89c-.18.05-.24,0-.18-.09,1.57-2.06,2.41-5.05,2.54-9v-10l-.18-1.36.08-.09a10.45,10.45,0,0,1,2.63,1h8.34c.54-.66,1-1.21,1.36-1.63q0-.09.27,0a7.75,7.75,0,0,1,2.36,1.72q.09.18,0,.27t-.18.09Zm-4.26,11.6A2.23,2.23,0,0,0,210,16,18,18,0,0,1,212.12,17c.06.13.06.22,0,.28a3.36,3.36,0,0,0-.91.45,15.47,15.47,0,0,1-4.89,4.35q-.18-.09-.09-.18a14.76,14.76,0,0,0,3-6.07Zm1.72-7.25-.09.09v2.27h5.35V8.43Zm-.09,2.81v2.27h5.35V11.24Zm4.54,5.26q3.8.54,4.71,2.72a1.44,1.44,0,0,1-.36,1.72,1.11,1.11,0,0,1-1.64,0c-.24-.12-.45-.51-.63-1.18a5,5,0,0,0-2.17-3.08A.22.22,0,0,1,215.75,16.5Z"/><path class="cls-9" d="M230,1.91q3.9.27,4.62,2.36a1.89,1.89,0,0,1-1.36,2.26h5.89a9.63,9.63,0,0,1,1.72-2.08c.06-.06.15-.06.28,0a21,21,0,0,1,2.71,2.08c.12.24.1.39-.09.45H223.79a5.9,5.9,0,0,1-1.45.09l-.55-.63a3,3,0,0,0,.73.09h9.6a1.2,1.2,0,0,1-.54-.45,1.41,1.41,0,0,1-.27-1,5.56,5.56,0,0,0-1.45-2.9q-.18,0-.18-.09A1,1,0,0,1,230,1.91ZM228.32,7.8l3.08,1.45v.36a2.6,2.6,0,0,0-1.09.55,23,23,0,0,1-8,4.8c-.13.06-.19.06-.19,0a.18.18,0,0,1,.1-.27A19.8,19.8,0,0,0,228,8,.38.38,0,0,1,228.32,7.8Zm12.41,16a17.5,17.5,0,0,1-7.61-3.9,19,19,0,0,1-10.69,3.45c-.18-.06-.28-.13-.28-.18s0-.09.19-.09a15.27,15.27,0,0,0,9.33-4.9,14.33,14.33,0,0,1-2.63-5.8c0-.12.12-.15.37-.09a10.78,10.78,0,0,0,3.26,4.62,14.8,14.8,0,0,0,2.08-5.07c0-.12.15-.15.46-.09l2.9,1.27q.07.36,0,.45a.78.78,0,0,1-.28.09q-.54.09-.54.36a13.76,13.76,0,0,1-2.63,4.53,17.89,17.89,0,0,0,8.7,2.36q.18.09,0,.18A4.89,4.89,0,0,0,241,23.48.59.59,0,0,1,240.73,23.75ZM235.11,8.62c3.57.12,6,1.14,7.35,3.08q.72,3.17-2,2.63a6.23,6.23,0,0,1-1.63-1.91,8.41,8.41,0,0,0-3.72-3.53q-.18,0-.18-.09T235.11,8.62Z"/><path class="cls-9" d="M261,13.33c.12.12-.09.33-.64.63q-3.25,7.62-13,9.79-.36-.09-.09-.36a15.77,15.77,0,0,0,10.24-10.06h-1c.18.12-.06.36-.73.72q-3.08,5-9.79,7.16-.18,0-.18-.09t.09-.18a18.94,18.94,0,0,0,7.35-7.61h-1.18a26.7,26.7,0,0,1-6.08,4.35c-.36,0-.45-.18-.27-.55a17,17,0,0,0,4.72-5.71c-.61,0-.91-.18-.91-.54l.09-7V2a8.39,8.39,0,0,1,2.72,1.09l-.09.09h7.25a1.61,1.61,0,0,1,.91-.91.8.8,0,0,1,.36-.09,9,9,0,0,1,2.26,1.18.38.38,0,0,1,0,.36,1,1,0,0,1-.45.36l-.18.09.09,6.26c-.12.48-.64.78-1.54.9-.73,0-1.09-.24-1.09-.72v-.45H252v.45a10,10,0,0,1,2,1.09v.45l-1.09.27a1.41,1.41,0,0,1-.27.36h9.52a3.45,3.45,0,0,1,1.17-1.17c0,.06,0,.06.1,0h.27a8.57,8.57,0,0,1,2.72,1.54v.45a.7.7,0,0,1-.46.27q-.45.09-.45.18-1.46,10.43-5.17,9.79-.45-.09-.45-.18a4.1,4.1,0,0,0-2.81-2.45q-.27-.09-.27-.27a.36.36,0,0,1,.36-.18q5.26,1.54,5.53-7.43Zm-9-6.89h7.88V3.63H252Zm0,3.26h7.88V6.89H252Z"/><path class="cls-9" d="M279.83,22.75c.06.55-.42.88-1.45,1S276.9,23.57,277,23V13.78h-5.89v1.45c-1.27,1.21-2.14,1.3-2.62.27L268.6,8V6.35c.42-.18,1.23.21,2.44,1.18h6V2.91a3,3,0,0,0-.18-.73,1,1,0,0,1,0-.82c.18-.12.85,0,2,.28,1,.18,1.48.36,1.54.54s-.15.36-.46.54l-.18.19V7.53h5.35c.48-.61.82-1,1-1.27h.36a15.49,15.49,0,0,1,2.72,1.54q.09.18,0,.27a1.93,1.93,0,0,1-1,.64l.27,6.07c-1.45,1.09-2.41,1.09-2.9,0v-1h-5.8ZM277,13.33V8h-5.89v5.35ZM279.74,8v5.35h5.8V8Z"/><path class="cls-9" d="M293.86,9.79q2.72,4.26.27,7.34a1.92,1.92,0,0,1-2.18.55,1.46,1.46,0,0,1-.63-1.91,8.14,8.14,0,0,1,.72-1.08,5.34,5.34,0,0,0,1.54-4.81C293.58,9.76,293.67,9.73,293.86,9.79Zm6.07,9.07c0,.78.48,1.17,1.45,1.17h1.9q2.89.55,3.81-4.8,0-.18.27,0-.63,3.45.54,5a1.09,1.09,0,0,1,.27.54c0,1.09-1.39,1.69-4.16,1.81h-2.54c-2.6-.06-3.93-.72-4-2V9.88l-.09-2.53q-.09,0,.09-.09a14.94,14.94,0,0,1,3.08.9v.27a1,1,0,0,1-.36.37l-.27.18Zm-.46-16.5q3.72.36,5,2.45a2.48,2.48,0,0,1-.36,2.72,1.31,1.31,0,0,1-2.18-.18A2.65,2.65,0,0,1,301.38,6a5,5,0,0,0-2-3.36q-.18,0-.18-.09A1,1,0,0,1,299.47,2.36Zm7,7.07c3.14.91,5.17,2.21,6.07,3.9a3,3,0,0,1-.18,3.35c-1,.91-1.78.82-2.44-.27a4.46,4.46,0,0,1-.55-1.54,9.82,9.82,0,0,0-3-5.26Q306.27,9.52,306.45,9.43Z"/><path class="cls-10" d="M68.12,41.21,67,41.65v3a1.73,1.73,0,0,1-.1.69.61.61,0,0,1-.35.32,2.86,2.86,0,0,1-.76.16l-.48,0L65,44.72l.49,0a1,1,0,0,0,.32-.06.24.24,0,0,0,.13-.13,1,1,0,0,0,0-.3V42c-.63.22-1.07.37-1.33.44l-.32-1.18q.69-.21,1.65-.54V38.9H64.8V37.75H66V35.93L67,36v1.78H68V38.9H67v1.47l.78-.31.16.54ZM73.85,46A11.82,11.82,0,0,1,71,44.28a16.56,16.56,0,0,1-3.25,1.78l-.55-1.16a15.79,15.79,0,0,0,3-1.46,8.71,8.71,0,0,1-1.5-2.71h-.4v-1h2.13V38.35H68.23V37.3h2.14V35.86l1.11,0V37.3H74v1.05H71.48v1.33h2v1.09a11.11,11.11,0,0,1-.73,1.54,6.13,6.13,0,0,1-.92,1.21,10.39,10.39,0,0,0,2.55,1.34Zm-4-5.25a6.5,6.5,0,0,0,1.15,2,5,5,0,0,0,1.31-2Z"/><path class="cls-10" d="M92.65,39.17a11.18,11.18,0,0,0,1.73,2.42,16.28,16.28,0,0,0,2.53,2.15l-.68,1.08a14.6,14.6,0,0,1-3.83-4.11v5.14H91.29V40.7a15.58,15.58,0,0,1-3.75,4.17l-.77-1A14.37,14.37,0,0,0,91,39.17H87.4V38.05h3.89V35.91l1.11,0v2.1h2.12a6.87,6.87,0,0,0-.67-.7c-.28-.27-.55-.51-.8-.72l.68-.75c.21.16.45.37.74.64s.54.51.77.74l-.66.79h1.76v1.12Z"/><path class="cls-10" d="M118.85,46a23,23,0,0,1-2.7-.93,8.61,8.61,0,0,1-1.88-1,10.11,10.11,0,0,1-1.86,1.06,27.67,27.67,0,0,1-2.64,1L109.3,45a19.83,19.83,0,0,0,2.41-.81,8.56,8.56,0,0,0,1.71-.92,10.51,10.51,0,0,1-1.57-2.2l1-.57a8.15,8.15,0,0,0,1.48,2.05,7,7,0,0,0,1.39-2.05l1,.51a8.84,8.84,0,0,1-1.54,2.24,8.85,8.85,0,0,0,1.74.89,19.32,19.32,0,0,0,2.38.71Zm0-8.76V38.3h-9.08V37.21h4.09c-.11-.44-.22-.81-.33-1.12l1.12-.16c.06.16.19.59.4,1.28Zm-9,3.76a14.29,14.29,0,0,0,1.53-1.19,12.24,12.24,0,0,0,1.34-1.36l.82.76a17.23,17.23,0,0,1-1.41,1.44A18.5,18.5,0,0,1,110.42,42Zm8.34.85c-.39-.37-.91-.82-1.55-1.36s-1.16-.94-1.56-1.22l.66-.85c.41.28.93.67,1.57,1.17s1.14.92,1.52,1.25Z"/><path class="cls-10" d="M140.89,40.92c0,.4-.08.95-.14,1.65s-.11,1.25-.16,1.63a2.19,2.19,0,0,1-.26.85,1,1,0,0,1-.54.4,4.17,4.17,0,0,1-1,.17l-.75.05-.34-1,.67,0a3.75,3.75,0,0,0,.7-.09.55.55,0,0,0,.32-.23,1.51,1.51,0,0,0,.16-.54c0-.28.08-.62.13-1s.09-.7.11-.93h-1.1a6.4,6.4,0,0,1-1.24,2.34,8.77,8.77,0,0,1-2.35,1.86l-.68-.85a8.36,8.36,0,0,0,2.09-1.49,5.09,5.09,0,0,0,1.09-1.86h-1.13a6.57,6.57,0,0,1-1.59,1.93,11.21,11.21,0,0,1-2.6,1.56l-.57-.86A10.42,10.42,0,0,0,134,43.26a5.17,5.17,0,0,0,1.34-1.4h-1.25a14.45,14.45,0,0,1-1.53,1.35l-.64-.83a7.14,7.14,0,0,0,2.19-2.15h-.75V36.29h6.88v3.94h-4.94q-.15.26-.45.69Zm-1.77-3.06v-.68H134.4v.68Zm-4.72.84v.62h4.72V38.7Z"/><path class="cls-10" d="M163.63,41.14A14.73,14.73,0,0,1,162.15,40c0,.46-.06,1.15-.13,2.07s-.12,1.59-.16,2a2.3,2.3,0,0,1-.26.9,1.11,1.11,0,0,1-.57.47,4.2,4.2,0,0,1-1.07.18l-1,.07-.34-1.11,1-.07a2.71,2.71,0,0,0,.67-.1.48.48,0,0,0,.31-.24,1.8,1.8,0,0,0,.14-.57L161,41.1H158.2l0,.51a5.68,5.68,0,0,1-.32,1.74,4,4,0,0,1-.93,1.37,10.23,10.23,0,0,1-1.83,1.34l-.85-.91a8,8,0,0,0,1.63-1,3.09,3.09,0,0,0,.79-1.07A5,5,0,0,0,157,41.6l.05-.5h-1.44v-.81c-.29.26-.61.52-.94.77l-.62-1a12.54,12.54,0,0,0,2.06-1.92,9.06,9.06,0,0,0,1.41-2.25l1.06.42a10.52,10.52,0,0,1-1.11,1.94A11.53,11.53,0,0,1,156,40h6.18a8.77,8.77,0,0,1-1.48-1.7,10.52,10.52,0,0,1-1.08-2.15l1-.38A7.49,7.49,0,0,0,162,38.19a10.6,10.6,0,0,0,2.27,1.9Z"/><path class="cls-10" d="M182.12,41.35h4.23v1.07h-4.23v3.32H181V42.42h-4.27V41.35H181V37.52h-3.72v-1.1h8.55v1.1h-3.71Zm-3.65-3.48.93,1.26c.34.49.63.9.84,1.24l-.82.68c-.23-.36-.53-.81-.89-1.33s-.65-.93-.88-1.23Zm4.36,2.52c.27-.33.59-.76,1-1.28a12.12,12.12,0,0,0,.81-1.25l.86.62c-.18.31-.46.73-.83,1.26s-.69,1-.95,1.29Z"/><path class="cls-10" d="M205.63,36.8c.41.39.91.87,1.49,1.46s1,1.1,1.42,1.53l-.7.81-.55-.62c-1.86.05-3.48.1-4.85.16-1.21,0-2.14.1-2.8.17l-.27-1.15a2.51,2.51,0,0,0,.55-.14,1.13,1.13,0,0,0,.35-.2,11.11,11.11,0,0,0,1.48-1.39,13.84,13.84,0,0,0,1.41-1.72l1,.55a16.51,16.51,0,0,1-1.31,1.58,11.81,11.81,0,0,1-1.26,1.21l4.72-.15c-.48-.51-.95-1-1.42-1.44Zm-4.27,9.05h-1.11V41.17h7.26v4.68h-1.13v-.47h-5Zm5-1.5V42.24h-5v2.11Z"/></g></g></svg>