<svg xmlns="http://www.w3.org/2000/svg" viewBox="0 0 518.46 170.08"><defs><style>.cls-1{fill:#fff;}.cls-2,.cls-3{fill:#005fd0;}.cls-2{stroke:#005fd0;stroke-miterlimit:10;stroke-width:0.25px;}</style></defs><g id="Layer_2" data-name="Layer 2"><g id="图层_1" data-name="图层 1"><rect class="cls-1" width="518.46" height="170.08"/><path class="cls-2" d="M164.88,124.77c-.64,0-1.21-.08-1.73-.14a.42.42,0,0,1-.36-.43v-.87a.43.43,0,0,1,.47-.42c1.22.11,2.3.17,3.23.17a10.55,10.55,0,0,0,1.45-.08,2,2,0,0,0,.82-.27.85.85,0,0,0,.36-.49,3.6,3.6,0,0,0,.09-.91,4.16,4.16,0,0,0-.08-.94.66.66,0,0,0-.33-.43,2.48,2.48,0,0,0-.84-.19l-2.84-.33a3.66,3.66,0,0,1-1.67-.52,2.07,2.07,0,0,1-.79-1.09,5.51,5.51,0,0,1-.22-1.71,3.87,3.87,0,0,1,.53-2.22,2.52,2.52,0,0,1,1.44-1,9.72,9.72,0,0,1,2.39-.24c.67,0,1.36,0,2.06.1.53,0,1,.1,1.37.17a.41.41,0,0,1,.34.41v.82a.43.43,0,0,1-.47.43c-.32,0-.7-.08-1.12-.1q-.94-.06-1.8-.06a11.16,11.16,0,0,0-1.45.07,2,2,0,0,0-.83.24.78.78,0,0,0-.4.46,3,3,0,0,0-.09.84,3.12,3.12,0,0,0,.09.89.67.67,0,0,0,.35.39,3.37,3.37,0,0,0,.88.19l2.85.32a4.32,4.32,0,0,1,1.45.36,1.78,1.78,0,0,1,.82.92,5.44,5.44,0,0,1,.31,2.12,4.53,4.53,0,0,1-.5,2.36,2.35,2.35,0,0,1-1.35,1,9.09,9.09,0,0,1-2.25.23C166.4,124.84,165.68,124.82,164.88,124.77Z"/><path class="cls-2" d="M182.34,124.28v-4.66H176.8v4.66a.42.42,0,0,1-.42.42h-1.11a.42.42,0,0,1-.42-.42V113.22a.42.42,0,0,1,.42-.42h1.11a.42.42,0,0,1,.42.42v4.58h5.54v-4.58a.42.42,0,0,1,.42-.42h1.09a.42.42,0,0,1,.42.42v11.06a.42.42,0,0,1-.42.42h-1.09A.42.42,0,0,1,182.34,124.28Z"/><path class="cls-2" d="M196.26,124.42l-.95-2.59h-5l-.92,2.59a.42.42,0,0,1-.4.28h-1.06a.42.42,0,0,1-.4-.56l4-11.06a.42.42,0,0,1,.4-.28h2a.42.42,0,0,1,.4.28l4,11.06a.42.42,0,0,1-.4.56h-1.11A.42.42,0,0,1,196.26,124.42Zm-3.42-9.65h-.09l-1.9,5.31h3.89Z"/><path class="cls-2" d="M209.17,124.7a.45.45,0,0,1-.36-.18l-5.49-8.16h-.07v7.92a.42.42,0,0,1-.42.42h-1a.42.42,0,0,1-.43-.42V113.22a.42.42,0,0,1,.43-.42h1.37a.42.42,0,0,1,.35.19l5.34,7.85h.07v-7.62a.42.42,0,0,1,.42-.42h1a.42.42,0,0,1,.43.42v11.06a.42.42,0,0,1-.43.42Z"/><path class="cls-2" d="M219.46,119.35v-.85a.42.42,0,0,1,.42-.42h3.8v6.38a19.88,19.88,0,0,1-2,.28c-.73.07-1.36.1-1.9.1a8.15,8.15,0,0,1-3.27-.5,2.79,2.79,0,0,1-1.48-1.77,13.42,13.42,0,0,1-.41-3.82,12.92,12.92,0,0,1,.42-3.81,2.81,2.81,0,0,1,1.48-1.78,8.16,8.16,0,0,1,3.26-.5c.57,0,1.22,0,1.93.11a15,15,0,0,1,1.55.21.41.41,0,0,1,.34.41v.82a.42.42,0,0,1-.49.41,21.69,21.69,0,0,0-2.5-.19,12.41,12.41,0,0,0-2.71.2,1.51,1.51,0,0,0-1,1.08,11.05,11.05,0,0,0-.28,3,13.76,13.76,0,0,0,.21,2.88,1.69,1.69,0,0,0,.88,1.19,5.55,5.55,0,0,0,2.16.31,13.46,13.46,0,0,0,1.95-.11v-3.25h-1.91A.42.42,0,0,1,219.46,119.35Z"/><path class="cls-2" d="M235.2,124.28v-4.66h-5.54v4.66a.42.42,0,0,1-.42.42h-1.11a.42.42,0,0,1-.42-.42V113.22a.42.42,0,0,1,.42-.42h1.11a.42.42,0,0,1,.42.42v4.58h5.54v-4.58a.42.42,0,0,1,.42-.42h1.09a.42.42,0,0,1,.43.42v11.06a.42.42,0,0,1-.43.42h-1.09A.42.42,0,0,1,235.2,124.28Z"/><path class="cls-2" d="M249.13,124.42l-1-2.59h-5l-.92,2.59a.42.42,0,0,1-.4.28h-1.07a.42.42,0,0,1-.4-.56l4-11.06a.42.42,0,0,1,.4-.28h1.94a.42.42,0,0,1,.4.28l4,11.06a.42.42,0,0,1-.4.56h-1.11A.42.42,0,0,1,249.13,124.42Zm-3.43-9.65h-.09l-1.9,5.31h3.89Z"/><path class="cls-2" d="M254.25,124.28V113.22a.42.42,0,0,1,.42-.42h1.11a.42.42,0,0,1,.42.42v11.06a.42.42,0,0,1-.42.42h-1.11A.42.42,0,0,1,254.25,124.28Z"/><path class="cls-2" d="M268.07,124.28V115a.42.42,0,0,0-.43-.42h-2.76a.43.43,0,0,1-.43-.43v-1a.42.42,0,0,1,.43-.42h8.33a.42.42,0,0,1,.43.42v1a.43.43,0,0,1-.43.43h-2.76a.42.42,0,0,0-.43.42v9.24a.42.42,0,0,1-.42.42h-1.11A.42.42,0,0,1,268.07,124.28Z"/><path class="cls-2" d="M276.7,122.5V115a2.21,2.21,0,0,1,2.2-2.2h5.31a.43.43,0,0,1,.43.43v.9a.43.43,0,0,1-.43.43h-5.12a.44.44,0,0,0-.44.44v2.38a.44.44,0,0,0,.44.44h4.3a.44.44,0,0,1,.44.43v.9a.44.44,0,0,1-.44.43h-4.3a.44.44,0,0,0-.44.44v2.48a.44.44,0,0,0,.44.44h5.12a.43.43,0,0,1,.43.43v.9a.43.43,0,0,1-.43.43H278.9A2.2,2.2,0,0,1,276.7,122.5Z"/><path class="cls-2" d="M294.27,124.77c-.55,0-1.06.07-1.54.07a7.66,7.66,0,0,1-3.18-.5,2.62,2.62,0,0,1-1.36-1.75,21.24,21.24,0,0,1,0-7.68,2.62,2.62,0,0,1,1.36-1.75,7.66,7.66,0,0,1,3.18-.5,13.92,13.92,0,0,1,1.54.09,12.29,12.29,0,0,1,1.32.21v1.15a.44.44,0,0,1-.49.43c-.71-.07-1.34-.11-1.88-.11a7,7,0,0,0-2.35.26,1.44,1.44,0,0,0-.87,1.09,14,14,0,0,0-.21,3,14.17,14.17,0,0,0,.21,3,1.48,1.48,0,0,0,.87,1.09,7.28,7.28,0,0,0,2.35.26,17,17,0,0,0,2-.11.42.42,0,0,1,.48.43v.82a.44.44,0,0,1-.35.43C295,124.7,294.66,124.74,294.27,124.77Z"/><path class="cls-2" d="M306.69,124.27v-4.65h-5.53v4.65a.43.43,0,0,1-.43.43h-1.09a.44.44,0,0,1-.44-.43v-11a.44.44,0,0,1,.44-.43h1.09a.43.43,0,0,1,.43.43v4.57h5.53v-4.57a.44.44,0,0,1,.44-.43h1.07a.43.43,0,0,1,.43.43v11a.43.43,0,0,1-.43.43h-1.07A.44.44,0,0,1,306.69,124.27Z"/><path class="cls-2" d="M320.64,124.7a.44.44,0,0,1-.36-.19l-5.49-8.15h-.07v7.91a.43.43,0,0,1-.43.43h-1a.44.44,0,0,1-.44-.43v-11a.44.44,0,0,1,.44-.43h1.36a.45.45,0,0,1,.36.19l5.33,7.85h.07v-7.61a.44.44,0,0,1,.44-.43h1a.43.43,0,0,1,.43.43v11a.43.43,0,0,1-.43.43Z"/><path class="cls-2" d="M327.67,124.35a2.36,2.36,0,0,1-1.29-1.67,27.72,27.72,0,0,1,0-7.86,2.33,2.33,0,0,1,1.29-1.66,8.34,8.34,0,0,1,3.4-.5,8.43,8.43,0,0,1,3.41.5,2.3,2.3,0,0,1,1.29,1.67,18.9,18.9,0,0,1,.28,3.92,18.9,18.9,0,0,1-.28,3.92,2.34,2.34,0,0,1-1.29,1.68,8.47,8.47,0,0,1-3.41.49A8.38,8.38,0,0,1,327.67,124.35Zm5.54-1.48a1.24,1.24,0,0,0,.72-1,28.35,28.35,0,0,0,0-6.2,1.24,1.24,0,0,0-.72-1,11.55,11.55,0,0,0-4.28,0,1.26,1.26,0,0,0-.71,1,30.11,30.11,0,0,0,0,6.2,1.26,1.26,0,0,0,.71,1,11,11,0,0,0,4.28,0Z"/><path class="cls-2" d="M339.87,124.27v-11a.43.43,0,0,1,.43-.43h1.1a.43.43,0,0,1,.43.43v9.23a.43.43,0,0,0,.43.43h4.43a.43.43,0,0,1,.43.43v1a.43.43,0,0,1-.43.43H340.3A.43.43,0,0,1,339.87,124.27Z"/><path class="cls-2" d="M351.42,124.35a2.39,2.39,0,0,1-1.29-1.67,27.72,27.72,0,0,1,0-7.86,2.35,2.35,0,0,1,1.29-1.66,11.84,11.84,0,0,1,6.81,0,2.3,2.3,0,0,1,1.29,1.67,18.9,18.9,0,0,1,.28,3.92,18.9,18.9,0,0,1-.28,3.92,2.34,2.34,0,0,1-1.29,1.68,12.08,12.08,0,0,1-6.81,0Zm5.55-1.48a1.26,1.26,0,0,0,.71-1,28.35,28.35,0,0,0,0-6.2,1.26,1.26,0,0,0-.71-1,7.64,7.64,0,0,0-2.15-.2,7.55,7.55,0,0,0-2.14.2,1.26,1.26,0,0,0-.71,1,30.11,30.11,0,0,0,0,6.2,1.26,1.26,0,0,0,.71,1,7.09,7.09,0,0,0,2.14.21A7.17,7.17,0,0,0,357,122.87Z"/><path class="cls-2" d="M368.05,119.34v-.83a.43.43,0,0,1,.43-.43h3.37a.42.42,0,0,1,.42.43v5.59a.41.41,0,0,1-.35.42c-.5.09-1.05.16-1.63.22-.73.07-1.37.1-1.91.1a8.21,8.21,0,0,1-3.27-.5,2.82,2.82,0,0,1-1.48-1.77,13.49,13.49,0,0,1-.4-3.82,13.34,13.34,0,0,1,.41-3.81,2.82,2.82,0,0,1,1.49-1.78,8.14,8.14,0,0,1,3.25-.5c.58,0,1.22,0,1.94.11a14.75,14.75,0,0,1,1.54.21.41.41,0,0,1,.35.42v.8a.44.44,0,0,1-.5.42,21.69,21.69,0,0,0-2.5-.19,12.37,12.37,0,0,0-2.7.2,1.5,1.5,0,0,0-1,1.08,11,11,0,0,0-.29,3,12.94,12.94,0,0,0,.22,2.88,1.65,1.65,0,0,0,.87,1.19,5.59,5.59,0,0,0,2.16.31q.94,0,1.56-.06a.43.43,0,0,0,.4-.43V120.2a.43.43,0,0,0-.43-.43h-1.48A.43.43,0,0,1,368.05,119.34Z"/><path class="cls-2" d="M379.05,124.27v-3.89l-3.84-6.94a.43.43,0,0,1,.37-.64h1.08a.41.41,0,0,1,.37.22l3,5.3h.12l2.94-5.3a.45.45,0,0,1,.38-.22h1a.43.43,0,0,1,.37.64L381,120.38v3.89a.43.43,0,0,1-.43.43h-1.08A.43.43,0,0,1,379.05,124.27Z"/><path class="cls-2" d="M393,122.49V115a2.2,2.2,0,0,1,2.2-2.21h5.31a.43.43,0,0,1,.43.43v.91a.43.43,0,0,1-.43.42h-5.13a.43.43,0,0,0-.43.43v2.4a.43.43,0,0,0,.43.43h4.31a.43.43,0,0,1,.43.43v.9a.43.43,0,0,1-.43.43h-4.31a.43.43,0,0,0-.43.43v2.5a.43.43,0,0,0,.43.43h5.13a.43.43,0,0,1,.43.43v.9a.43.43,0,0,1-.43.43h-5.31A2.2,2.2,0,0,1,393,122.49Z"/><path class="cls-2" d="M412.09,124.7a.34.34,0,0,1-.29-.15l-3-4.17h-.13l-3,4.17a.33.33,0,0,1-.29.15h-1.18a.44.44,0,0,1-.36-.69l3.78-5.28-3.71-5.24a.43.43,0,0,1,.35-.69h1.26a.36.36,0,0,1,.29.15l3,4h.13l3-4a.36.36,0,0,1,.29-.15h1.2a.44.44,0,0,1,.36.69l-3.72,5.19L413.7,124a.43.43,0,0,1-.35.68Z"/><path class="cls-2" d="M422.9,124.77c-.55,0-1.06.07-1.53.07a7.75,7.75,0,0,1-3.19-.5,2.62,2.62,0,0,1-1.36-1.75,21.24,21.24,0,0,1,0-7.68,2.62,2.62,0,0,1,1.36-1.75,7.75,7.75,0,0,1,3.19-.5,13.89,13.89,0,0,1,1.53.09,11.89,11.89,0,0,1,1.32.21v1.16a.42.42,0,0,1-.48.42c-.72-.07-1.35-.11-1.89-.11a7,7,0,0,0-2.35.26,1.41,1.41,0,0,0-.86,1.09,14,14,0,0,0-.21,3,14.17,14.17,0,0,0,.21,3,1.45,1.45,0,0,0,.86,1.09,7.32,7.32,0,0,0,2.35.26,17.06,17.06,0,0,0,2-.11.42.42,0,0,1,.47.42v.84a.43.43,0,0,1-.34.42Q423.49,124.73,422.9,124.77Z"/><path class="cls-2" d="M435.33,124.28V120a.42.42,0,0,0-.43-.42h-4.68a.42.42,0,0,0-.43.42v4.24a.42.42,0,0,1-.42.42h-1.11a.42.42,0,0,1-.42-.42v-11a.42.42,0,0,1,.42-.43h1.11a.42.42,0,0,1,.42.43v4.14a.43.43,0,0,0,.43.43h4.68a.43.43,0,0,0,.43-.43v-4.14a.42.42,0,0,1,.42-.43h1.09a.42.42,0,0,1,.42.43v11a.42.42,0,0,1-.42.42h-1.09A.42.42,0,0,1,435.33,124.28Z"/><path class="cls-2" d="M449.26,124.42l-1-2.59h-5l-.92,2.59a.42.42,0,0,1-.4.28h-1.07a.43.43,0,0,1-.4-.57l4.07-11.33h2.54l4.07,11.33a.43.43,0,0,1-.4.57h-1.11A.42.42,0,0,1,449.26,124.42Zm-3.43-9.65h-.09l-1.9,5.31h3.89Z"/><path class="cls-2" d="M462.16,124.7a.42.42,0,0,1-.35-.19l-5.5-8.15h-.07v7.92a.42.42,0,0,1-.42.42h-1a.42.42,0,0,1-.43-.42v-11a.43.43,0,0,1,.43-.43h1.37a.42.42,0,0,1,.35.19l5.34,7.85h.07v-7.61a.43.43,0,0,1,.43-.43h1a.42.42,0,0,1,.42.43v11a.42.42,0,0,1-.42.42Z"/><path class="cls-2" d="M472.45,119.35v-.85a.42.42,0,0,1,.42-.42h3.38a.42.42,0,0,1,.42.42v5.6a.41.41,0,0,1-.35.42c-.5.09-1.05.16-1.64.22s-1.36.1-1.9.1a8.15,8.15,0,0,1-3.27-.5,2.79,2.79,0,0,1-1.48-1.77,13.42,13.42,0,0,1-.41-3.82,12.92,12.92,0,0,1,.42-3.81,2.82,2.82,0,0,1,1.49-1.78,8.1,8.1,0,0,1,3.25-.5c.57,0,1.22,0,1.94.11a14.75,14.75,0,0,1,1.54.21.41.41,0,0,1,.34.42v.8a.42.42,0,0,1-.48.42,22,22,0,0,0-2.51-.19,12.48,12.48,0,0,0-2.71.2,1.51,1.51,0,0,0-1,1.08,11.05,11.05,0,0,0-.28,3,13.76,13.76,0,0,0,.21,2.88,1.69,1.69,0,0,0,.88,1.19,5.59,5.59,0,0,0,2.16.31c.64,0,1.17,0,1.58-.06a.42.42,0,0,0,.38-.42V120.2a.43.43,0,0,0-.43-.43h-1.49A.42.42,0,0,1,472.45,119.35Z"/><path class="cls-2" d="M480.7,122.49V115a2.21,2.21,0,0,1,2.21-2.21h5.31a.42.42,0,0,1,.42.43v.91a.42.42,0,0,1-.42.42h-5.14a.43.43,0,0,0-.42.43v2.4a.42.42,0,0,0,.42.43h4.32a.42.42,0,0,1,.43.42v.92a.42.42,0,0,1-.43.42h-4.32a.42.42,0,0,0-.42.43v2.5a.42.42,0,0,0,.42.43h5.14a.42.42,0,0,1,.42.42v.92a.42.42,0,0,1-.42.42h-5.31A2.21,2.21,0,0,1,480.7,122.49Z"/><path class="cls-3" d="M99.13,103.38,88.66,97.2a7.07,7.07,0,0,0-7.25,0L71,103.38a5.85,5.85,0,0,0-2.87,5v30.75a57,57,0,0,0,33.92,0V108.4A5.85,5.85,0,0,0,99.13,103.38Z"/><path class="cls-3" d="M141.73,85A56.7,56.7,0,0,0,88.15,28.43V42.66a6,6,0,0,0,2.91,5.12l17.88,10.58a2.59,2.59,0,0,1,1.2,1.6,2.54,2.54,0,0,1-.28,2l-.5.84a2.61,2.61,0,0,1-3.58.92L89.63,54.14a9,9,0,0,0-9.19,0L64.3,63.7a2.61,2.61,0,0,1-3.58-.92l-.5-.84a2.54,2.54,0,0,1-.28-2,2.59,2.59,0,0,1,1.2-1.6L79,47.78a6,6,0,0,0,2.92-5.12V28.43A56.71,56.71,0,0,0,61.85,136.79V106.05a8,8,0,0,1,3.9-6.84l10.7-6.32a1.7,1.7,0,0,0,0-2.92L63.21,82.14a4.21,4.21,0,0,1,0-7.25L80.39,64.72a9.15,9.15,0,0,1,9.3,0l17.18,10.17a4.21,4.21,0,0,1,0,7.25L93.63,90a1.7,1.7,0,0,0,0,2.92l10.7,6.32a8,8,0,0,1,3.9,6.84v30.74A56.71,56.71,0,0,0,141.73,85Z"/><path class="cls-3" d="M99.26,78.51a1.52,1.52,0,0,0-.76-1.33L88.09,71A6,6,0,0,0,82,71L71.58,77.18a1.55,1.55,0,0,0,0,2.67L82,86a6,6,0,0,0,6.1,0L98.5,79.85A1.53,1.53,0,0,0,99.26,78.51Z"/><path class="cls-1" d="M104.33,99.21l-10.7-6.32a1.7,1.7,0,0,1,0-2.92l13.24-7.83a4.21,4.21,0,0,0,0-7.25L89.69,64.72a9.15,9.15,0,0,0-9.3,0L63.21,74.89a4.21,4.21,0,0,0,0,7.25L76.45,90a1.7,1.7,0,0,1,0,2.92l-10.7,6.32a8,8,0,0,0-3.9,6.84v30.74a58.28,58.28,0,0,0,6.23,2.36V108.4a5.85,5.85,0,0,1,2.87-5L81.41,97.2a7.07,7.07,0,0,1,7.25,0l10.47,6.18a5.85,5.85,0,0,1,2.87,5v30.75a58.28,58.28,0,0,0,6.23-2.36V106.05A8,8,0,0,0,104.33,99.21ZM88.09,86A6,6,0,0,1,82,86L71.58,79.85a1.55,1.55,0,0,1,0-2.67L82,71a6,6,0,0,1,6.1,0L98.5,77.18a1.55,1.55,0,0,1,0,2.67Z"/><path class="cls-1" d="M79,47.78,61.14,58.36a2.59,2.59,0,0,0-1.2,1.6,2.54,2.54,0,0,0,.28,2l.5.84a2.61,2.61,0,0,0,3.58.92l16.14-9.56a9,9,0,0,1,9.19,0l16.15,9.56a2.61,2.61,0,0,0,3.58-.92l.5-.84a2.54,2.54,0,0,0,.28-2,2.59,2.59,0,0,0-1.2-1.6L91.06,47.78a6,6,0,0,1-2.91-5.12V28.43c-1-.05-2.07-.08-3.11-.08s-2.08,0-3.11.08V42.66A6,6,0,0,1,79,47.78Z"/><path d="M273.44,77.22c-1,3.08-.4,6.68-.86,10.15-.24,1.84-.41,3.92-1.77,5.64-1.06,1.34-2.24,1-3.34.85A2.27,2.27,0,0,1,266,91.5c0-1.07-.53-2.39,1.52-2.48.73,0,.61-1.61,1.06-2.44,1-1.75.54-3.74.73-5.64a3.75,3.75,0,0,0-.83-2.34c-.44-.77-1.43-.49-1.86.23-1,1.61-2.86,2-4.12,3.2-1,1-2,3.37-1.36,4.7.23.48.69.82.09,1.39a2.14,2.14,0,0,1-1.92.59,1.32,1.32,0,0,1-1.16-1.2,5.07,5.07,0,0,1,1-4.2c1.89-2.1,4.1-3.9,5.69-6.28.32-.46,1.08-.63,1.65-.91a3.78,3.78,0,0,0,2.13-3.67,1.46,1.46,0,0,0-2.49-1c-1.24,1.24-3,1.32-4.36,2.15-.52.31-.87-.4-1.27-.45-1.14-.15-1.18-1.48-2.24-1.81-.56-.18,0-1.55.7-1.79a10.45,10.45,0,0,1,4.21-.63c.16,0,.4,0,.48,0,1.59-2.05,4.95-2.65,5.39-5.41.37-2.32,1.59-4.77.78-7-.75-2.08.45-3.83.17-5.76-.14-.91.95-1.58,1.72-1.94s1.59.5,2.21,1A13.42,13.42,0,0,1,278,55.32a2.58,2.58,0,0,1-.67,3.44c-1,.76-.48,1.86-1.15,2.72A23,23,0,0,0,273.65,65a3,3,0,0,0-.23,2c.14.71.56,1.52,1.72,1a23.44,23.44,0,0,0,6.91-4.64,6.6,6.6,0,0,0,2.41-4.81,17.18,17.18,0,0,1,1.19-6.82c.63-1.4,1.75-1.32,2.86-1.16s1.4.94,1.26,1.94a4.28,4.28,0,0,0,.63,2.74c.15.24.25.54.53.5,1.67-.29,1.87,1.2,2,2.07a3.62,3.62,0,0,1-1.46,3.3c-1.41,1.22-3.12,2.08-4.36,3.54a2.23,2.23,0,0,0-.68,1.72A2.5,2.5,0,0,1,286,68.7c-.34.35-.22,1,.09,1.53.82,1.33,1.65,2.68,2.37,4.06a9.66,9.66,0,0,1,1.3,5.79,3,3,0,0,0,1.17,2.82A6.91,6.91,0,0,1,293,88.15c0,.92-.46,1.7-1.12,1.71a1.31,1.31,0,0,1-1.1-1.69c.36-1.32-.59-1.92-1.38-2.49-.57-.41-1.32-.66-1.76.48a5,5,0,0,1-1.21,2.2c-.69.58-1.22,1.5-2.26.5-.24-.24-.58-.13-.9,0a2.45,2.45,0,0,1-3.6-2,1.94,1.94,0,0,0-.49-1,1.52,1.52,0,0,1-.09-1.55,5.53,5.53,0,0,1,6.06-2.68,1.49,1.49,0,0,0,1.55-.56c.6-.61.12-3.71-.65-4-3.25-1.2-3.36-4.08-3.76-6.81a11.88,11.88,0,0,1,0-1.79,1.38,1.38,0,0,0-2.23-1.24,24.78,24.78,0,0,0-5.73,5.21A5.64,5.64,0,0,0,273.44,77.22Z"/><path d="M364.88,89.7a4.16,4.16,0,0,1,1.65-3.2,30.89,30.89,0,0,1,5.4-3.06,3.76,3.76,0,0,1,1.63-.4,1.58,1.58,0,0,0,1.75-1.11c.15-.75.39-1.73-.52-2.36a1.64,1.64,0,0,0-2,.11c-2.29,1.34-2.62,1.23-4.15-.35a1.54,1.54,0,0,1-.44-1.46c.27-1.1-.76-1.81-.78-2.89,0-.54-.91-.39-1.39-.17s-.64.54-1.13.52c-1.22-.06-2.63.37-3-1.47-.08-.39-.42-.74-.55-1.14-.24-.7-1.15-1.36-.75-2s1.42-.12,2.1-.25a13.13,13.13,0,0,0,4.26-1.53,87.69,87.69,0,0,1,11.28-6,6.87,6.87,0,0,1,4.3,0c1,.28,1.09,1.36,1,2.31a2.9,2.9,0,0,1-2.07,2.22,14.46,14.46,0,0,0-5.3,3.3,4.11,4.11,0,0,0-.8,2.08c-.23,1,.82.87,1.36,1.24a14.26,14.26,0,0,0,1.94,1.3c1.43.67,2.21,4.35,1.34,5.69-.37.57-1.29,1.22-1,1.71a5.85,5.85,0,0,0,2.46,2.23,4.27,4.27,0,0,1,2.68,4.24c-.05,1.18-1,1.73-1.94,1a6.63,6.63,0,0,1-2.12-2.2c-.88-2-2.36-2.35-4.22-2.15-1.66.17-2.21,1.6-2.79,2.8-.94,2-5,3.86-7,3A1.64,1.64,0,0,1,364.88,89.7Z"/><path d="M173.66,56.1c2,.26,2.89,1.95,4,3.32s.63,2.68-.67,3.81c-1,.84-1.82,1.85-2.77,2.74s-1.55,2-.8,3.23c.92,1.52,2.17.6,3,0,1-.74,2.55-.89,3.14-1.55,1.1-1.22,2.22-1,3.43-1.05,1.64,0,2.1.8,1.44,2.27-.31.7-.15,1.61-1.18,1.92-.45.13-.75.59-1.24.07a.63.63,0,0,0-.89,0c-1.57,1.44-3.57,2.22-5.28,3.45a5.9,5.9,0,0,0-1.94,5.62,2,2,0,0,0,3.21.62c1.44-1.63,3.2-.74,4.84-.83.53,0,.52.57.53,1a1.89,1.89,0,0,1-1,1.73c-3.84,2.75-8.54,3.4-12.75,5.23-1.69.73-3.81.71-5.63,1.5-.67.3-3.47-2-3.68-3-.27-1.22.92-1.62,1.57-2.23.43-.42,1.19-.26,1.84.07a4.16,4.16,0,0,0,4.45-.7c1-1,.35-2.15.13-3.32-.35-1.86-.84-3.8.2-5.65a1.33,1.33,0,0,0,.11-.63,21.68,21.68,0,0,1,2.29-10c.72-1.58.89-3.62,1.5-5.38C171.91,57.42,171.9,55.92,173.66,56.1Z"/><path d="M320.22,51.7c-.45,1.24-.67,3-2.53,4-.52.27-.92.65-1.4.17a1.38,1.38,0,0,1-.17-1.52c.65-1.67,1.64-3.2,1.55-5.12a1,1,0,0,1,1.06-1c.86.14,1.07,1.09,1.45,1.74C320.37,50.27,320.22,50.8,320.22,51.7Z"/><path d="M432.62,99.22c0,.73-.75,1-1.12,1.47-.83,1.12-2.14,1.61-3.21,2.4-.73.55-1.5.23-2.13-.46s-.2-1,.15-1.62c.74-1.35,1.31-2.45,3.14-1.3.78.48,1.47-.59,2.25-.88C432.25,98.64,432.47,98.64,432.62,99.22Z"/><path d="M377.36,58.29c-1.33,0-3.68-2-3.94-3.26-.11-.53.13-.78.66-.89,1.24-.25,4.72,2.2,4.72,3.47S377.68,57.92,377.36,58.29Z"/><path d="M386.5,70.38c0-1.36.14-1.41,1.71-.65a4.66,4.66,0,0,1,1.37.73c1.4,1.33,1.32,2.41-.35,3.34-.2.12-.43.25-.57,0C388,72.77,386.37,72.31,386.5,70.38Z"/><path d="M404,91.72c-.46,0-1.07.15-1.06-.61a3.7,3.7,0,0,1,3-2.93,1.09,1.09,0,0,1,1.3,1.23C407.16,90.58,405.5,91.73,404,91.72Z"/><path d="M473.82,106.12c1.88-.16,3.21-1.43,4.73-2.32a6.36,6.36,0,0,1,3.46-1.22,4,4,0,0,1-2.34,1.61,32.52,32.52,0,0,1-3.2,2.22c-.63.37-1.29.83-2.1.4C474.11,106.64,473.71,106.58,473.82,106.12Z"/><path d="M412.28,85.1c-.32,0-.69.08-.85-.29s.21-.56.45-.74a1.82,1.82,0,0,1,.81-.47c.71-.11,1-1.32,1.92-.71a.59.59,0,0,1,.08.56C414,84.12,413.54,85.22,412.28,85.1Z"/><path d="M242.49,81.62c-.77-1.14-1.4-2.65-2.79-3.05-2.13-.62-4.29-3.49-4.21-5.65.12-2.9,0-5.82-2.57-7.89-.49-.39-.94-1-.45-1.52,1.14-1.35,2-3,3.72-3.72a12.45,12.45,0,0,0,4.31-3.22c.77-.81.87-1.8-.23-2.42-.8-.45-1.47-1.85-2.71-.63-.24.22-.43-.19-.65-.31a10.88,10.88,0,0,1-5-5.59,2.11,2.11,0,0,0-3.65-.69,6,6,0,0,0-1.11,1.38,29.5,29.5,0,0,0-2.9,7.21c-.55,2.52-.85,5.06-1.18,7.58a3.91,3.91,0,0,1-2.11,3.16,21.15,21.15,0,0,0-5.32,4c-3.45,3.13-7.18,6.08-9.87,10a.68.68,0,0,1-.67.36.57.57,0,0,1-.51-.7c.26-1.33-1-2.67.09-4,.27-.32,0-1,.06-1.6a2.44,2.44,0,0,1,.13-1.1c1.05-1.62,1.68-3.43,2.62-5.09,1.08-1.87,2.35-3.63,1.95-6-.06-.44.32-.66.44-1a6.17,6.17,0,0,0-.25-5.41c-.93-1.7-2.52-1.24-3.89-1.22-.81,0-2,.35-2.17,1.19-.19,1-.51,2.11.59,3.13,1.36,1.25,2.21,2.86,1.18,4.86a10.21,10.21,0,0,0-1,3.78c-.19,2-1.39,3.74-1.89,5.71a39.66,39.66,0,0,1-.78,4,31.84,31.84,0,0,0-2,11.07c0,.52.18,1.09-.27,1.55-.73.75-.45,1.53-.12,2.38a24.15,24.15,0,0,1,1.54,4.6c.18,1,.55,1.1,1.33,1.11,1,0,.94-.66.93-1.33a17.08,17.08,0,0,0,0-2.77,10.05,10.05,0,0,1,.87-4.94,11.3,11.3,0,0,1,2.85-4c2-2.06,4.45-3.85,6.09-6.18a26.78,26.78,0,0,1,6.52-6.13c.23,1.7,1.13,3.12.69,4.68-.34,1.16-.26,2.69-1.36,3.38-1.91,1.19-3.62,2.25-4.27,4.72-.27,1-.19,1.67.46,2a3,3,0,0,1,1.73,3.36c0,.39,0,.85.5.87,1.74.11,2.77,1.43,4,2.33a4.22,4.22,0,0,0,5.68-.71,6,6,0,0,1,1.55-1.42c2.44-1.32,3.53-3.54,4.27-6,.47-1.58,2-3.11,3-3s3.41,2.68,3.28,3.63a39.24,39.24,0,0,1-.95,4.27,1.4,1.4,0,0,1-.46.84c-2.17,1.56-3.1,4.22-5.2,5.83a1.92,1.92,0,0,0-.59.77c-.26.71.15,1.19.78.93.8-.34,1.87-.54,2.25-1.4.68-1.51,2-2.39,3.07-3.48a12.84,12.84,0,0,0,3.35-4.42c.41-1.08,1.63-1.92,1.86-3A6.36,6.36,0,0,0,242.49,81.62ZM226.61,58.36c.45-1.23,1.12-2.38,1.57-3.61a1.71,1.71,0,0,1,1.9-1.13,1.74,1.74,0,0,1,1.9,1.15,5.2,5.2,0,0,0,.85,2c.25.27.25,1-.15,1.17a6.48,6.48,0,0,0-3.16,2.51c-.34.44-.93.15-1.28.22C226.46,60.67,226,60,226.61,58.36Zm3,26.23a13.5,13.5,0,0,1-3.84,4c-.71.47-1.59,0-2.13.14-.79,0-1.34,0-1.87,0a1.41,1.41,0,0,1-1.49-1,3.25,3.25,0,0,1,.14-2.51.93.93,0,0,1,1.59.25c.6,1.22.88,1.11,1.61,0,.39-.6,1-2.08,2.5-1.1.49.31,1.27.07,1.37-.87s.74-1.27,1.5-.87S230.26,83.58,229.61,84.59Zm2.5-9.54c-.33.71-.94,1.72-1.46,1.28s-1.47-1.45-.88-2.56a4.94,4.94,0,0,0,.51-1.32c.09-.37.47-.67.75-1.06a2.35,2.35,0,0,1,.53.48C232.13,72.86,232.7,73.82,232.11,75.05Z"/><path d="M488.39,66.47a7.23,7.23,0,0,0-4.29,1c-1.58.85-3-.14-3.16-1.92-.07-1,1-1.37,1.1-1.85.55-1.82,1.71-3.75.39-5.76-.39-.59-.32-1,.45-1.16.55-.14,1-.52,1.6-.66,1.64-.4,3.18-2.89,3-4.55,0-.21,0-.48-.16-.6-1.2-1.2-2.22-2.67-4.33-2.25-.68.13-1,.74-1.73.74-1.95,0-3.51,1.24-5.3,1.79s-3.27,1.76-5.17,2.22A11.53,11.53,0,0,0,467,55.08a14.79,14.79,0,0,1-6.54,2.23c-.48.07-1-.06-1.42.22a3.28,3.28,0,0,1-3.34,0c-1.26-.59-2.68-.27-4-.18a1.44,1.44,0,0,0-1.1,1.26c-.4,2.31,1.22,3.89,2.05,5.75.15.33.59.22.85.36,1.37.75,2.88.51,4.34.66,1.91.19,2.11.89,1.39,2.78-.22.59-.69,1-.8,1.68-.38,2.26-1.65,4.21-2.23,6.45-.67,2.58-.07,5.06-.27,7.58a.55.55,0,0,0,.16.27,33.52,33.52,0,0,0,3.38,3.26c.93.69,1.86,1.12,2.67-.69.72-1.59.34-3,.51-4.52.19-1.71-.56-3.42,0-5.14.25-.79.93-1.46.67-2.41a1.94,1.94,0,0,1,.72-2c.29-.26.38-1.07,1.06-.47.48.41.78.77.29,1.49s-1.25,1.41-.83,2.14a5.86,5.86,0,0,1,.48,3c0,1.6,1.61,1.5,2.46,2.18.35.28,1.35.34,1.49-.11.36-1.13,2.13-1.56,1.53-3.13-.1-.26.23-.46.35-.69.86-1.62,2.06-3.06,2.27-5a3,3,0,0,1,1.95-2.55c.64-.17,1.37.74,1.94,1.49a3.1,3.1,0,0,0,2.84,1.59,1.2,1.2,0,0,1,1.22.65,15,15,0,0,1,1.65,4.59c.37,2-.59,3.77-.74,5.7-.21,2.5,1.57,4.57.87,7.17-.54,2-.6,4.14-1.41,6.09-.24.62-.93,1-1.23,1.64a14.76,14.76,0,0,1-6.23,6.72c-.57.31-.44.6-.2,1a2.76,2.76,0,0,0,2.83-.62,29,29,0,0,1,5.36-2.92,11.14,11.14,0,0,0,3.18-3.2c.92-1.39,2-2.86,1.8-4.79-.38-3.55.13-7.09-.58-10.7s-.2-7.25-.23-10.89c0-.57.07-.93.78-1.17a4.38,4.38,0,0,0,3-2.58C490.46,67.86,489.89,66.62,488.39,66.47Zm-16,1.66c-.64.65-.79-.25-1.08-.48-.7-.56-.8-1.51-1.86-2a2.44,2.44,0,0,0-2.77.18,1.86,1.86,0,0,1,1.26-2.46,28.41,28.41,0,0,0,4.9-2.76c.82-.59,1.84-.26,2.64-1,.45-.42.57.36.69.85C477,64.05,474.47,66,472.36,68.13Z"/><path d="M437.72,89.08a4.05,4.05,0,0,0-.35-1.82c-.78-2-3-2.79-3.72-4.79-.23-.61-1-.56-1.44-.25-1.47,1.09-2.42.36-3.47-.71-1.19-1.23-2.53-.89-3,.78a9.88,9.88,0,0,1-2.8,3.85,1.55,1.55,0,0,1-2.53.08c-.91-1-.25-1.64.37-2.35s1.46-1.16,1.81-2c1-2.49,3.27-3.49,5.54-4,1.33-.27,2.41-.81,2.78-1.79a6.89,6.89,0,0,0,.71-3.28,29.51,29.51,0,0,1-.74-6.53c.06-2.36,1.59-4.75.18-7.14-.15-.26.2-.48.4-.62,1-.61.8-1.5.72-2.44a13.05,13.05,0,0,0-2.53-6.72,1.86,1.86,0,0,0-2.37-.8A10.11,10.11,0,0,0,425,49.67a1.52,1.52,0,0,1-2.37-.21c-.35-.39-.76-.93-1.35-.55s-1.24.7-1.06,1.47a3.1,3.1,0,0,1-.69,2.51,4.24,4.24,0,0,0-.6,2.73,2.64,2.64,0,0,1-.12.94,10.81,10.81,0,0,0-1.09,4.82,10.37,10.37,0,0,1-.82,4.3c-1,2.95-1.58,5.8-.53,8.83.44,1.28,1.16,2.6.74,4s-.5,2.44,1.22,2.85c.09,0,.17.28.17.43-.07,1.34.48,2.82-1,3.84-1.29.9-1.22,2.46-1.55,3.77-.26,1.06,1.06,1.78,2.06,1.26,1.48-.77,2.22-.38,2.48,1.34.06.4.07.71.54.86a2.39,2.39,0,0,0,3-1.27,43.42,43.42,0,0,0,2.21-3.95,1.32,1.32,0,0,1,1.67-.67c.7.22.51.86.48,1.39a2.08,2.08,0,0,1-.28,1.06c-1.62,2.69-3.3,5.36-4.72,8.16a13.29,13.29,0,0,0-1.41,2.48c-.09.35-.22.78.06,1.09s.63,0,.91-.23c1.77-1.44,4.56-2.09,3.68-5.43-.23-.83.51-1.78,1.19-2.4A5.16,5.16,0,0,0,429.15,91a5.44,5.44,0,0,1,2.18-2.51,1.71,1.71,0,0,1,2.46.26,4.86,4.86,0,0,1,.64,6.06c-.24.45-.23,1-.68,1.41-.26.23-.15.61.08.88a.64.64,0,0,0,.87.21c.91-.74,2.17-1.45,2.36-2.56C437.39,92.77,436.73,90.67,437.72,89.08Zm-12.32-20c-.38,0-.88.09-.95-.52a4.77,4.77,0,0,1,2.21-1.84.77.77,0,0,1,.54.88C427.09,68.67,426.62,69.35,425.4,69.12Zm-3.16-6.75c.36-1.83,1.57-3.26,2.12-5,.38-1.18,1.34-1.3,2.31-1.24,1.27.09.65,1.13.74,1.77a11.59,11.59,0,0,1,0,1.77v.16c0,3.41,0,3.43-3.15,4.52a1.86,1.86,0,0,1-2.09-.35C421.5,63.35,422.13,63,422.24,62.37Z"/><path d="M344.12,58.2c1.57-.65,1.68-2.07,2.49-3.1a1.42,1.42,0,0,0-2.24-1.61c-2.95,1.79-6.28,3.08-8.19,6.26a1.51,1.51,0,0,1-.85.69,1.75,1.75,0,0,0-1.58,2,.51.51,0,0,1-.41.6.72.72,0,0,1-.57-.19c-.73-1.16-2.11-2.46-1.95-3.5s.07-2.62.66-3.64c.91-1.54-.26-2.31-.77-3.34a.82.82,0,0,0-1-.41c-.89.16-3,2.75-2.53,3.36,1,1.35.51,2.9,1,4.31A5.49,5.49,0,0,1,327,65.6a45,45,0,0,1-5.42,5,1.76,1.76,0,0,1-1.69.27c-.61-.2-.4-.82-.37-1.28a10.85,10.85,0,0,1,1.51-4.21,5,5,0,0,0,.42-2.8,1.68,1.68,0,0,0-2.66-1.17c-1.87,1.54-4.08,1.64-6.3,1.73-.15-.54.37-.59.43-.89.1-.52.29-1.16-.23-1.48s-.74.32-1,.58a1.84,1.84,0,0,0-.91,1.6,1.41,1.41,0,0,1-.81,1.32c-1.42.4-2,1.69-3.07,2.49s-.68,2.08-.55,3.15c.07.6.65.75,1.27.36,2.41-1.55,4.85-3,7.24-4.63a2.17,2.17,0,0,1,2.27-.17c.48.24.43,1,.4,1.74-.06,1.11-1.1,1.4-1.45,2.23a21,21,0,0,1-6.54,7.93,4.2,4.2,0,0,0-1.37,2.48c-.13.62.24,1,.69,1.34.61.52.91-.08,1.24-.29,1.26-.79,2.25-2,4-2.51,0,2.08,0,4,0,6a2.4,2.4,0,0,0,1.83,2.34c.69.2.8-1.08,1.08-1.84.49-1.36.29-2.76.57-4.13.56-2.76,1.56-5.08,4.25-6.37a3.56,3.56,0,0,0,2.2-2.17c.25-1.14,1.14-1.64,1.79-2.39.22-.26.4-.76.88-.45a1.12,1.12,0,0,1,.54,1,3.12,3.12,0,0,1-1.34,2.88c-1.76.84-2.43,2.24-3.11,3.86-.53,1.27.15,2.13.69,3s1.17-.06,1.72-.36c1.33-.71,1.93-.29,2,1.42,0,.55-.07,1.14.72,1.21s.71-.5.86-1c.41-1.52.71-3.16,1.79-4.36a16.75,16.75,0,0,1,6.82-5.16c1.7-.6,2.88.15,3,2s-.3,3.55.55,5.27a2.45,2.45,0,0,1-.05,2.17c-1.29,1.33.38,2.86-.51,4.12,1.75,2-.69,4.47.59,6.57.08.12-.13.4-.16.61-.15,1.05-.3,2.11-.41,3.14a17.26,17.26,0,0,1-2.9,7.45c-.82,1.35-2.1,2.28-2.77,3.67-.15.29-.42.56-.13.87a.79.79,0,0,0,1,.08,12.43,12.43,0,0,0,4.08-5.08c.62-1.56,1.56-3.11,1.7-5s1-3.72,1.08-5.65a52.63,52.63,0,0,0,0-7.64c-.27-2.49,1-4.93,0-7.38a.17.17,0,0,1,0-.15c1.33-1.51.47-3.32.63-5s-.39-3.71,1.52-5a1.39,1.39,0,0,0,.24-2.15c-.59-.51-1.41-.23-2.16.36-1.55,1.19-3.07,2.62-5.33,2.06-.45-.11-1.15.23-1.32-.3a2.05,2.05,0,0,1,.1-2C338.42,62.1,340.86,59.55,344.12,58.2Zm-11.11,8a2.12,2.12,0,0,0-.59,1.26c0,.66.41,1.62-.92,1.57s-.71-1-.85-1.62c-.3-1,.32-1.61,1-2.2.28-.26.49-.84,1-.24C332.9,65.31,333.41,65.65,333,66.19Z"/></g></g></svg>